<?xml version="1.0" standalone="no"?>
<!DOCTYPE svg PUBLIC "-//W3C//DTD SVG 20010904//EN"
 "http://www.w3.org/TR/2001/REC-SVG-20010904/DTD/svg10.dtd">
<svg version="1.0" xmlns="http://www.w3.org/2000/svg"
 width="700.000000pt" height="700.000000pt" viewBox="0 0 700.000000 700.000000"
 preserveAspectRatio="xMidYMid meet">
<metadata>
Created by potrace 1.14, written by Peter Selinger 2001-2017
</metadata>
<g transform="translate(0.000000,700.000000) scale(0.100000,-0.100000)"
fill="#000000" stroke="none">
<path d="M3460 5474 c-39 -14 -227 -74 -250 -80 -15 -3 -156 -48 -380 -119
-63 -20 -149 -47 -190 -60 -41 -13 -133 -42 -205 -65 -71 -22 -188 -59 -260
-81 -188 -58 -230 -84 -277 -171 l-23 -43 0 -845 c0 -852 2 -926 30 -1048 32
-139 132 -399 157 -410 5 -2 8 -8 8 -14 0 -15 98 -157 153 -223 75 -87 109
-120 232 -223 38 -33 146 -102 225 -144 103 -56 337 -181 435 -233 50 -26 113
-60 140 -75 28 -16 94 -51 149 -79 l98 -51 103 55 c57 30 122 65 146 78 45 25
148 79 304 162 237 126 336 182 410 230 330 218 575 594 641 985 4 25 9 54 12
65 3 11 6 409 8 885 l4 865 -24 50 c-58 118 -29 105 -691 314 -88 27 -268 84
-400 126 -132 42 -247 78 -255 80 -8 1 -67 20 -130 40 -63 20 -119 37 -125 39
-5 1 -26 -3 -45 -10z m166 -268 c60 -19 177 -55 259 -81 83 -26 168 -53 190
-60 22 -8 114 -37 205 -66 91 -28 215 -67 275 -86 61 -19 155 -49 210 -66 55
-17 108 -39 118 -50 16 -18 17 -69 17 -803 0 -838 -3 -888 -51 -1061 -86 -312
-312 -600 -594 -758 -27 -16 -104 -57 -170 -93 -129 -68 -275 -147 -367 -196
-32 -17 -89 -48 -127 -68 -39 -21 -79 -38 -90 -38 -11 0 -40 11 -63 23 -24 13
-92 50 -153 82 -60 32 -132 70 -160 85 -27 15 -90 49 -140 75 -49 26 -124 66
-165 88 -229 122 -401 277 -531 482 -64 101 -130 265 -165 415 -16 68 -18 156
-21 915 -4 801 -3 842 14 856 10 8 101 41 203 73 345 107 505 158 545 171 22
7 114 37 205 65 91 28 219 69 285 90 66 22 130 40 141 40 12 0 71 -15 130 -34z"/>
<path d="M3541 4927 c-11 -14 -13 -110 -13 -499 -1 -446 1 -482 17 -494 13
-10 125 -13 495 -13 561 -1 515 -11 505 116 -3 43 -8 85 -10 93 -2 8 -7 29 -9
45 -10 55 -47 159 -82 230 -154 306 -458 509 -794 531 -81 6 -97 4 -109 -9z"/>
<path d="M3265 4774 c-366 -64 -659 -320 -768 -669 -53 -169 -57 -366 -12
-537 136 -523 687 -834 1209 -683 377 109 655 442 693 830 11 110 8 132 -19
141 -13 5 -219 8 -458 9 l-435 0 -1 436 c-1 406 -5 477 -22 480 -40 7 -122 4
-187 -7z m110 -510 l1 -419 -300 -302 c-165 -167 -303 -303 -306 -303 -8 0
-83 106 -117 167 -30 54 -79 191 -90 250 -10 59 -11 241 -2 298 47 292 252
551 527 666 78 32 230 69 266 65 19 -3 20 -14 21 -422z m911 -558 c-19 -179
-107 -364 -238 -496 -88 -89 -155 -136 -263 -186 -288 -133 -622 -97 -885 95
l-61 45 302 302 302 302 425 -1 425 0 -7 -61z"/>
<path d="M2892 2698 c-19 -19 -15 -66 7 -78 13 -6 221 -10 605 -10 518 0 586
2 600 16 22 21 20 61 -3 74 -30 15 -1193 14 -1209 -2z"/>
<path d="M2930 2472 c-34 -5 -50 -20 -50 -47 0 -54 -13 -52 621 -51 628 1 619
0 619 51 0 48 6 48 -598 49 -312 0 -578 -1 -592 -2z"/>
<path d="M3259 2232 c-19 -4 -37 -40 -31 -64 2 -10 17 -21 33 -25 42 -11 488
-8 498 3 18 18 21 51 7 69 -13 18 -29 19 -252 20 -132 0 -246 -1 -255 -3z"/>
</g>
</svg>
